<svg id="eDfMCAnNsVB1" xmlns="http://www.w3.org/2000/svg" xmlns:xlink="http://www.w3.org/1999/xlink" viewBox="0 0 960 285" shape-rendering="geometricPrecision" text-rendering="geometricPrecision" project-id="c172b04c835d41daa927fb9565a1d91c" export-id="8e6ff1df0da942408ec5f9ce752a7995" cached="false"><g transform="matrix(1.33333 0 0-1.33333-64.5793 533.361)"><g><g clip-path="url(#eDfMCAnNsVB45)"><g transform="translate(-.354323 0.117645)"><g><g><g clip-path="url(#eDfMCAnNsVB17)"><g><g><g clip-path="url(#eDfMCAnNsVB15)"><g><g transform="translate(154.991 195.919)"><path d="M0,0c-53.532,0-97.085,43.553-97.085,97.097c0,8.345,6.791,15.124,15.142,15.124c8.358,0,15.137-6.779,15.137-15.124c0-36.847,29.971-66.819,66.806-66.819c36.847,0,66.818,29.972,66.818,66.819c0,8.345,6.767,15.124,15.125,15.124c8.375,0,15.142-6.779,15.142-15.124C97.085,43.553,53.544,0,0,0" fill="#fff"/></g></g><clipPath id="eDfMCAnNsVB15"><path d="M57.909,195.919h194.169v112.221h-194.169v-112.221Z"/></clipPath></g></g></g><clipPath id="eDfMCAnNsVB17"><path d="M57.9064,308.14h194.1716v-112.221h-194.1716v112.221Z"/></clipPath></g></g></g><g><g><g clip-path="url(#eDfMCAnNsVB30)"><g><g><g clip-path="url(#eDfMCAnNsVB28)"><g><g transform="translate(236.937 277.876)"><path d="M0,0c-8.364,0-15.13,6.779-15.13,15.136c0,36.835-29.972,66.807-66.813,66.807-36.834,0-66.806-29.972-66.806-66.807c0-8.357-6.779-15.136-15.142-15.136-8.346,0-15.136,6.779-15.136,15.136c0,53.526,43.553,97.073,97.084,97.073c53.544,0,97.079-43.547,97.079-97.073C15.136,6.779,8.376,0,0,0" fill="#fff"/></g></g><clipPath id="eDfMCAnNsVB28"><path d="M57.909,277.874h194.169v112.215h-194.169v-112.215Z"/></clipPath></g></g></g><clipPath id="eDfMCAnNsVB30"><path d="M57.9088,390.089h194.1692v-112.215h-194.1692v112.215Z"/></clipPath></g></g></g><g><g><g clip-path="url(#eDfMCAnNsVB43)"><g><g><g clip-path="url(#eDfMCAnNsVB41)"><g><g transform="translate(236.937 196.131)"><path d="M0,0c-8.364,0-15.13,6.766-15.13,15.13v163.735c0,8.352,6.766,15.142,15.13,15.142c8.376,0,15.136-6.79,15.136-15.142v-163.735C15.136,6.766,8.376,0,0,0" fill="#fff"/></g></g><clipPath id="eDfMCAnNsVB41"><path d="M221.812,196.13h30.266v194.007h-30.266v-194.007Z"/></clipPath></g></g></g><clipPath id="eDfMCAnNsVB43"><path d="M221.807,390.138h30.271v-194.008h-30.271v194.008Z"/></clipPath></g></g></g></g><clipPath id="eDfMCAnNsVB45"><path d="M0,595.276h841.89L841.89,0L0,0v595.276Z"/></clipPath></g></g><text dx="0" dy="0" font-family="&quot;Georgia&quot;" font-size="88.7625" font-weight="400" transform="matrix(1 0 0-1 291.867 302.625)" fill="#fff"><tspan x="0" y="0" font-family="&quot;Georgia&quot;" font-size="88.7625" font-weight="400" font-style="normal" fill="#fff"><![CDATA[



Centro



]]></tspan><tspan x="0" y="73.495354" font-family="&quot;Georgia&quot;" font-size="88.7625" font-weight="400" font-style="normal" fill="#fff"><![CDATA[



de Arbitraje



]]></tspan></text></g></svg>
